<?xml version="1.0" encoding="us-ascii" standalone="no"?><svg xmlns="http://www.w3.org/2000/svg" xmlns:xlink="http://www.w3.org/1999/xlink" contentStyleType="text/css" height="2138px" preserveAspectRatio="none" style="width:1179px;height:2138px;background:#FFFFFF;" version="1.1" viewBox="0 0 1179 2138" width="1179px" zoomAndPan="magnify"><defs><filter height="300%" id="f1xc8pef417ho6" width="300%" x="-1" y="-1"><feGaussianBlur result="blurOut" stdDeviation="2.0"/><feColorMatrix in="blurOut" result="blurOut2" type="matrix" values="0 0 0 0 0 0 0 0 0 0 0 0 0 0 0 0 0 0 .4 0"/><feOffset dx="4.0" dy="4.0" in="blurOut2" result="blurOut3"/><feBlend in="SourceGraphic" in2="blurOut3" mode="normal"/></filter></defs><g><text fill="#000000" font-family="sans-serif" font-size="14" font-weight="bold" lengthAdjust="spacing" textLength="246" x="465" y="32.9951">Conditional - Activity Diagram</text><ellipse cx="866" cy="57.2969" fill="#000000" filter="url(#f1xc8pef417ho6)" rx="10" ry="10" style="stroke:#000000;stroke-width:1.0;"/><rect fill="#FEFECE" filter="url(#f1xc8pef417ho6)" height="33.9688" rx="12.5" ry="12.5" style="stroke:#A80036;stroke-width:1.5;" width="108" x="812" y="87.2969"/><text fill="#000000" font-family="sans-serif" font-size="12" lengthAdjust="spacing" textLength="88" x="822" y="108.4355">Validate inputs</text><polygon fill="#FEFECE" filter="url(#f1xc8pef417ho6)" points="833,141.2656,899,141.2656,911,153.2656,899,165.2656,833,165.2656,821,153.2656,833,141.2656" style="stroke:#A80036;stroke-width:1.5;"/><text fill="#000000" font-family="sans-serif" font-size="11" lengthAdjust="spacing" textLength="66" x="833" y="157.0737">errors == 0</text><text fill="#000000" font-family="sans-serif" font-size="11" lengthAdjust="spacing" textLength="21" x="800" y="150.6714">yes</text><text fill="#000000" font-family="sans-serif" font-size="11" lengthAdjust="spacing" textLength="14" x="911" y="150.6714">no</text><rect fill="#FEFECE" filter="url(#f1xc8pef417ho6)" height="33.9688" rx="12.5" ry="12.5" style="stroke:#A80036;stroke-width:1.5;" width="188" x="650.25" y="175.2656"/><text fill="#000000" font-family="sans-serif" font-size="12" lengthAdjust="spacing" textLength="168" x="660.25" y="196.4043">Print "Validation successfull"</text><rect fill="#FEFECE" filter="url(#f1xc8pef417ho6)" height="33.9688" rx="12.5" ry="12.5" style="stroke:#A80036;stroke-width:1.5;" width="259" x="858.25" y="175.2656"/><text fill="#000000" font-family="sans-serif" font-size="12" lengthAdjust="spacing" textLength="239" x="868.25" y="196.4043">Print "Validation input parameter errors"</text><ellipse cx="987.75" cy="240.2344" fill="#FFFFFF" filter="url(#f1xc8pef417ho6)" rx="11" ry="11" style="stroke:#000000;stroke-width:1.0;"/><ellipse cx="987.75" cy="240.2344" fill="#000000" rx="6" ry="6" style="stroke:#7F7F7F;stroke-width:1.0;"/><path d="M423,275.6523 L423,300.7852 A0,0 0 0 0 423,300.7852 L757,300.7852 A0,0 0 0 0 757,300.7852 L757,293.6523 L777,288.2188 L757,285.6523 L757,285.6523 L747,275.6523 L423,275.6523 A0,0 0 0 0 423,275.6523 " fill="#FBFB77" filter="url(#f1xc8pef417ho6)" style="stroke:#A80036;stroke-width:1.0;"/><path d="M747,275.6523 L747,285.6523 L757,285.6523 L747,275.6523 " fill="#FBFB77" style="stroke:#A80036;stroke-width:1.0;"/><text fill="#000000" font-family="sans-serif" font-size="13" lengthAdjust="spacing" textLength="313" x="429" y="292.7192">Compute ProfitTarget, beforeEntryPrice, Amount</text><rect fill="#FEFECE" filter="url(#f1xc8pef417ho6)" height="33.9688" rx="12.5" ry="12.5" style="stroke:#A80036;stroke-width:1.5;" width="178" x="777" y="271.2344"/><text fill="#000000" font-family="sans-serif" font-size="12" lengthAdjust="spacing" textLength="158" x="787" y="292.373">Compute trade properties</text><rect fill="#FEFECE" filter="url(#f1xc8pef417ho6)" height="33.9688" rx="12.5" ry="12.5" style="stroke:#A80036;stroke-width:1.5;" width="237" x="747.5" y="325.2031"/><text fill="#000000" font-family="sans-serif" font-size="12" lengthAdjust="spacing" textLength="217" x="757.5" y="346.3418">Validate computed trade properties</text><polygon fill="#FEFECE" filter="url(#f1xc8pef417ho6)" points="833,379.1719,899,379.1719,911,391.1719,899,403.1719,833,403.1719,821,391.1719,833,379.1719" style="stroke:#A80036;stroke-width:1.5;"/><text fill="#000000" font-family="sans-serif" font-size="11" lengthAdjust="spacing" textLength="66" x="833" y="394.98">errors == 0</text><text fill="#000000" font-family="sans-serif" font-size="11" lengthAdjust="spacing" textLength="21" x="800" y="388.5776">yes</text><text fill="#000000" font-family="sans-serif" font-size="11" lengthAdjust="spacing" textLength="14" x="911" y="388.5776">no</text><rect fill="#FEFECE" filter="url(#f1xc8pef417ho6)" height="33.9688" rx="12.5" ry="12.5" style="stroke:#A80036;stroke-width:1.5;" width="188" x="650.25" y="413.1719"/><text fill="#000000" font-family="sans-serif" font-size="12" lengthAdjust="spacing" textLength="168" x="660.25" y="434.3105">Print "Validation successfull"</text><rect fill="#FEFECE" filter="url(#f1xc8pef417ho6)" height="33.9688" rx="12.5" ry="12.5" style="stroke:#A80036;stroke-width:1.5;" width="259" x="858.25" y="413.1719"/><text fill="#000000" font-family="sans-serif" font-size="12" lengthAdjust="spacing" textLength="239" x="868.25" y="434.3105">Print "Validation input parameter errors"</text><ellipse cx="987.75" cy="478.1406" fill="#FFFFFF" filter="url(#f1xc8pef417ho6)" rx="11" ry="11" style="stroke:#000000;stroke-width:1.0;"/><ellipse cx="987.75" cy="478.1406" fill="#000000" rx="6" ry="6" style="stroke:#7F7F7F;stroke-width:1.0;"/><path d="M401,499.1406 L401,524.2734 L798,524.2734 L798,509.1406 L788,499.1406 L401,499.1406 " fill="#FBFB77" filter="url(#f1xc8pef417ho6)" style="stroke:#A80036;stroke-width:1.0;"/><path d="M788,499.1406 L788,509.1406 L798,509.1406 L788,499.1406 " fill="#FBFB77" style="stroke:#A80036;stroke-width:1.0;"/><text fill="#000000" font-family="sans-serif" font-size="13" lengthAdjust="spacing" textLength="376" x="407" y="516.2075">ExpirationDate != null &amp;&amp; DateTime.Now &gt; ExpirationDate</text><polygon fill="#FEFECE" filter="url(#f1xc8pef417ho6)" points="810,524.2734,922,524.2734,934,536.2734,922,548.2734,810,548.2734,798,536.2734,810,524.2734" style="stroke:#A80036;stroke-width:1.5;"/><text fill="#000000" font-family="sans-serif" font-size="11" lengthAdjust="spacing" textLength="112" x="810" y="540.0815">Was order expired?</text><text fill="#000000" font-family="sans-serif" font-size="11" lengthAdjust="spacing" textLength="21" x="777" y="533.6792">yes</text><text fill="#000000" font-family="sans-serif" font-size="11" lengthAdjust="spacing" textLength="14" x="934" y="533.6792">no</text><rect fill="#FEFECE" filter="url(#f1xc8pef417ho6)" height="33.9688" rx="12.5" ry="12.5" style="stroke:#A80036;stroke-width:1.5;" width="276" x="613.75" y="558.2734"/><text fill="#000000" font-family="sans-serif" font-size="12" lengthAdjust="spacing" textLength="256" x="623.75" y="579.4121">Print "Time of trade expired, bot will stop."</text><ellipse cx="751.75" cy="623.2422" fill="#FFFFFF" filter="url(#f1xc8pef417ho6)" rx="11" ry="11" style="stroke:#000000;stroke-width:1.0;"/><ellipse cx="751.75" cy="623.2422" fill="#000000" rx="6" ry="6" style="stroke:#7F7F7F;stroke-width:1.0;"/><rect fill="#FEFECE" filter="url(#f1xc8pef417ho6)" height="33.9688" rx="12.5" ry="12.5" style="stroke:#A80036;stroke-width:1.5;" width="141" x="909.75" y="558.2734"/><text fill="#000000" font-family="sans-serif" font-size="12" lengthAdjust="spacing" textLength="121" x="919.75" y="579.4121">Print "Order is valid"</text><path d="M417.5,644.2422 L417.5,669.375 L785.5,669.375 L785.5,654.2422 L775.5,644.2422 L417.5,644.2422 " fill="#FBFB77" filter="url(#f1xc8pef417ho6)" style="stroke:#A80036;stroke-width:1.0;"/><path d="M775.5,644.2422 L775.5,654.2422 L785.5,654.2422 L775.5,644.2422 " fill="#FBFB77" style="stroke:#A80036;stroke-width:1.0;"/><text fill="#000000" font-family="sans-serif" font-size="13" lengthAdjust="spacing" textLength="347" x="423.5" y="661.3091">!ReachProfitTarget &amp;&amp; WasReachProfitTarget(lastBar)</text><rect fill="#FEFECE" filter="url(#f1xc8pef417ho6)" height="33.9688" rx="12.5" ry="12.5" style="stroke:#A80036;stroke-width:1.5;" width="231" x="750.5" y="717.7773"/><text fill="#000000" font-family="sans-serif" font-size="12" lengthAdjust="spacing" textLength="211" x="760.5" y="738.916">Print "Price reach ProfitTargetPrice."</text><rect fill="#FEFECE" filter="url(#f1xc8pef417ho6)" height="33.9688" rx="12.5" ry="12.5" style="stroke:#A80036;stroke-width:1.5;" width="245" x="743.5" y="771.7461"/><text fill="#000000" font-family="sans-serif" font-size="12" lengthAdjust="spacing" textLength="225" x="753.5" y="792.8848">Set variable ReachProfitTarget to true</text><rect fill="#FEFECE" filter="url(#f1xc8pef417ho6)" height="33.9688" rx="12.5" ry="12.5" style="stroke:#A80036;stroke-width:1.5;" width="313" x="709.5" y="825.7148"/><text fill="#000000" font-family="sans-serif" font-size="12" lengthAdjust="spacing" textLength="293" x="719.5" y="846.8535">Set variable ReachProfitTargetTimestamp to Now</text><polygon fill="#FEFECE" filter="url(#f1xc8pef417ho6)" points="797.5,669.375,934.5,669.375,946.5,681.375,934.5,693.375,797.5,693.375,785.5,681.375,797.5,669.375" style="stroke:#A80036;stroke-width:1.5;"/><text fill="#000000" font-family="sans-serif" font-size="11" lengthAdjust="spacing" textLength="21" x="870" y="703.5854">yes</text><text fill="#000000" font-family="sans-serif" font-size="11" lengthAdjust="spacing" textLength="137" x="797.5" y="685.1831">Was reach profit target?</text><text fill="#000000" font-family="sans-serif" font-size="11" lengthAdjust="spacing" textLength="14" x="946.5" y="678.7808">no</text><polygon fill="#FEFECE" filter="url(#f1xc8pef417ho6)" points="866,879.6836,878,891.6836,866,903.6836,854,891.6836,866,879.6836" style="stroke:#A80036;stroke-width:1.5;"/><path d="M193,913.6836 L193,938.8164 L767,938.8164 L767,923.6836 L757,913.6836 L193,913.6836 " fill="#FBFB77" filter="url(#f1xc8pef417ho6)" style="stroke:#A80036;stroke-width:1.0;"/><path d="M757,913.6836 L757,923.6836 L767,923.6836 L757,913.6836 " fill="#FBFB77" style="stroke:#A80036;stroke-width:1.0;"/><text fill="#000000" font-family="sans-serif" font-size="13" lengthAdjust="spacing" textLength="553" x="199" y="930.7505">ReachProfitTarget &amp;&amp; !ReachBeforeEntryPrice &amp;&amp; WasReachBeforeEntryPrice(lastBar)</text><rect fill="#FEFECE" filter="url(#f1xc8pef417ho6)" height="33.9688" rx="12.5" ry="12.5" style="stroke:#A80036;stroke-width:1.5;" width="233" x="749.5" y="987.2188"/><text fill="#000000" font-family="sans-serif" font-size="12" lengthAdjust="spacing" textLength="213" x="759.5" y="1008.3574">Print "Price reach beforeEntryPrice."</text><rect fill="#FEFECE" filter="url(#f1xc8pef417ho6)" height="33.9688" rx="12.5" ry="12.5" style="stroke:#A80036;stroke-width:1.5;" width="276" x="728" y="1041.1875"/><text fill="#000000" font-family="sans-serif" font-size="12" lengthAdjust="spacing" textLength="256" x="738" y="1062.3262">Set variable ReachBeforeEntryPrice to true</text><rect fill="#FEFECE" filter="url(#f1xc8pef417ho6)" height="33.9688" rx="12.5" ry="12.5" style="stroke:#A80036;stroke-width:1.5;" width="343" x="694.5" y="1095.1563"/><text fill="#000000" font-family="sans-serif" font-size="12" lengthAdjust="spacing" textLength="323" x="704.5" y="1116.2949">Set variable ReachBeforeEntryPriceTimestamp to now</text><rect fill="#FEFECE" filter="url(#f1xc8pef417ho6)" height="33.9688" rx="12.5" ry="12.5" style="stroke:#A80036;stroke-width:1.5;" width="518" x="607" y="1197.5273"/><text fill="#000000" font-family="sans-serif" font-size="12" lengthAdjust="spacing" textLength="498" x="617" y="1218.666">Print "On exchange is open max allowed trades, order do not place on exchange."</text><ellipse cx="866" cy="1271.0117" fill="#FFFFFF" filter="url(#f1xc8pef417ho6)" rx="11" ry="11" style="stroke:#000000;stroke-width:1.0;"/><ellipse cx="866" cy="1271.0117" fill="#000000" rx="6" ry="6" style="stroke:#7F7F7F;stroke-width:1.0;"/><polygon fill="#FEFECE" filter="url(#f1xc8pef417ho6)" points="728.5,1149.125,1003.5,1149.125,1015.5,1161.125,1003.5,1173.125,728.5,1173.125,716.5,1161.125,728.5,1149.125" style="stroke:#A80036;stroke-width:1.5;"/><text fill="#000000" font-family="sans-serif" font-size="11" lengthAdjust="spacing" textLength="21" x="870" y="1183.3354">yes</text><text fill="#000000" font-family="sans-serif" font-size="11" lengthAdjust="spacing" textLength="275" x="728.5" y="1164.9331">CountOpenTrades() &gt;= MaxAllowedOpenTrades</text><text fill="#000000" font-family="sans-serif" font-size="11" lengthAdjust="spacing" textLength="14" x="1015.5" y="1158.5308">no</text><path d="M10,1314.0117 L10,1339.1445 L779,1339.1445 L779,1324.0117 L769,1314.0117 L10,1314.0117 " fill="#FBFB77" filter="url(#f1xc8pef417ho6)" style="stroke:#A80036;stroke-width:1.0;"/><path d="M769,1314.0117 L769,1324.0117 L779,1324.0117 L769,1314.0117 " fill="#FBFB77" style="stroke:#A80036;stroke-width:1.0;"/><text fill="#000000" font-family="sans-serif" font-size="13" lengthAdjust="spacing" textLength="748" x="16" y="1331.0786">ReachBeforeEntryPriceTimestamp.Subtract(ReachProfitTargetTimestamp).TotalMinutes &lt; PlaceTradeDelayInMinutes</text><rect fill="#FEFECE" filter="url(#f1xc8pef417ho6)" height="33.9688" rx="12.5" ry="12.5" style="stroke:#A80036;stroke-width:1.5;" width="438" x="647" y="1387.5469"/><text fill="#000000" font-family="sans-serif" font-size="12" lengthAdjust="spacing" textLength="418" x="657" y="1408.6855">Print "Most fast movement to level, order do not place on exchange."</text><ellipse cx="866" cy="1461.0313" fill="#FFFFFF" filter="url(#f1xc8pef417ho6)" rx="11" ry="11" style="stroke:#000000;stroke-width:1.0;"/><ellipse cx="866" cy="1461.0313" fill="#000000" rx="6" ry="6" style="stroke:#7F7F7F;stroke-width:1.0;"/><polygon fill="#FEFECE" filter="url(#f1xc8pef417ho6)" points="791,1339.1445,941,1339.1445,953,1351.1445,941,1363.1445,791,1363.1445,779,1351.1445,791,1339.1445" style="stroke:#A80036;stroke-width:1.5;"/><text fill="#000000" font-family="sans-serif" font-size="11" lengthAdjust="spacing" textLength="21" x="870" y="1373.355">yes</text><text fill="#000000" font-family="sans-serif" font-size="11" lengthAdjust="spacing" textLength="150" x="791" y="1354.9526">Time delay less then limit</text><text fill="#000000" font-family="sans-serif" font-size="11" lengthAdjust="spacing" textLength="14" x="953" y="1348.5503">no</text><rect fill="#FEFECE" filter="url(#f1xc8pef417ho6)" height="33.9688" rx="12.5" ry="12.5" style="stroke:#A80036;stroke-width:1.5;" width="202" x="765" y="1514.0313"/><text fill="#000000" font-family="sans-serif" font-size="12" lengthAdjust="spacing" textLength="182" x="775" y="1535.1699">Place Limit order on exchange</text><polygon fill="#FEFECE" filter="url(#f1xc8pef417ho6)" points="779,938.8164,953,938.8164,965,950.8164,953,962.8164,779,962.8164,767,950.8164,779,938.8164" style="stroke:#A80036;stroke-width:1.5;"/><text fill="#000000" font-family="sans-serif" font-size="11" lengthAdjust="spacing" textLength="21" x="870" y="973.0269">yes</text><text fill="#000000" font-family="sans-serif" font-size="11" lengthAdjust="spacing" textLength="174" x="779" y="954.6245">Was reach before entry price?</text><text fill="#000000" font-family="sans-serif" font-size="11" lengthAdjust="spacing" textLength="14" x="965" y="948.2222">no</text><polygon fill="#FEFECE" filter="url(#f1xc8pef417ho6)" points="866,1568,878,1580,866,1592,854,1580,866,1568" style="stroke:#A80036;stroke-width:1.5;"/><path d="M162,1602 L162,1627.1328 L695,1627.1328 L695,1612 L685,1602 L162,1602 " fill="#FBFB77" filter="url(#f1xc8pef417ho6)" style="stroke:#A80036;stroke-width:1.0;"/><path d="M685,1602 L685,1612 L695,1612 L685,1602 " fill="#FBFB77" style="stroke:#A80036;stroke-width:1.0;"/><text fill="#000000" font-family="sans-serif" font-size="13" lengthAdjust="spacing" textLength="512" x="168" y="1619.0669">ReachBeforeEntryPrice &amp;&amp; WasReachProfitTargetAfterBeforeEntryPrice(lastBar)</text><rect fill="#FEFECE" filter="url(#f1xc8pef417ho6)" height="33.9688" rx="12.5" ry="12.5" style="stroke:#A80036;stroke-width:1.5;" width="359" x="686.5" y="1675.5352"/><text fill="#000000" font-family="sans-serif" font-size="12" lengthAdjust="spacing" textLength="339" x="696.5" y="1696.6738">Print "Price reach profit target after hit beforeEntryPrice."</text><rect fill="#FEFECE" filter="url(#f1xc8pef417ho6)" height="33.9688" rx="12.5" ry="12.5" style="stroke:#A80036;stroke-width:1.5;" width="237" x="747.5" y="1729.5039"/><text fill="#000000" font-family="sans-serif" font-size="12" lengthAdjust="spacing" textLength="217" x="757.5" y="1750.6426">Print "Cancel pending order if exist."</text><rect fill="#FEFECE" filter="url(#f1xc8pef417ho6)" height="33.9688" rx="12.5" ry="12.5" style="stroke:#A80036;stroke-width:1.5;" width="123" x="804.5" y="1791.9883"/><text fill="#000000" font-family="sans-serif" font-size="12" lengthAdjust="spacing" textLength="103" x="814.5" y="1813.127">CancelLimitOrder</text><ellipse cx="866" cy="1856.957" fill="#FFFFFF" filter="url(#f1xc8pef417ho6)" rx="11" ry="11" style="stroke:#000000;stroke-width:1.0;"/><ellipse cx="866" cy="1856.957" fill="#000000" rx="6" ry="6" style="stroke:#7F7F7F;stroke-width:1.0;"/><polygon fill="#FEFECE" filter="url(#f1xc8pef417ho6)" points="707,1627.1328,1025,1627.1328,1037,1639.1328,1025,1651.1328,707,1651.1328,695,1639.1328,707,1627.1328" style="stroke:#A80036;stroke-width:1.5;"/><text fill="#000000" font-family="sans-serif" font-size="11" lengthAdjust="spacing" textLength="21" x="870" y="1661.3433">yes</text><text fill="#000000" font-family="sans-serif" font-size="11" lengthAdjust="spacing" textLength="318" x="707" y="1642.9409">Was reach before profit target after before entry price?</text><text fill="#000000" font-family="sans-serif" font-size="11" lengthAdjust="spacing" textLength="14" x="1037" y="1636.5386">no</text><path d="M338.5,1899.957 L338.5,1925.0898 L686.5,1925.0898 L686.5,1909.957 L676.5,1899.957 L338.5,1899.957 " fill="#FBFB77" filter="url(#f1xc8pef417ho6)" style="stroke:#A80036;stroke-width:1.0;"/><path d="M676.5,1899.957 L676.5,1909.957 L686.5,1909.957 L676.5,1899.957 " fill="#FBFB77" style="stroke:#A80036;stroke-width:1.0;"/><text fill="#000000" font-family="sans-serif" font-size="13" lengthAdjust="spacing" textLength="327" x="344.5" y="1917.0239">ReachBeforeEntryPrice &amp;&amp; !IsPendingOrderActive()</text><rect fill="#FEFECE" filter="url(#f1xc8pef417ho6)" height="33.9688" rx="12.5" ry="12.5" style="stroke:#A80036;stroke-width:1.5;" width="226" x="753" y="1973.4922"/><text fill="#000000" font-family="sans-serif" font-size="12" lengthAdjust="spacing" textLength="206" x="763" y="1994.6309">Print "Pending order was activate."</text><ellipse cx="866" cy="2046.9766" fill="#FFFFFF" filter="url(#f1xc8pef417ho6)" rx="11" ry="11" style="stroke:#000000;stroke-width:1.0;"/><ellipse cx="866" cy="2046.9766" fill="#000000" rx="6" ry="6" style="stroke:#7F7F7F;stroke-width:1.0;"/><polygon fill="#FEFECE" filter="url(#f1xc8pef417ho6)" points="698.5,1925.0898,1033.5,1925.0898,1045.5,1937.0898,1033.5,1949.0898,698.5,1949.0898,686.5,1937.0898,698.5,1925.0898" style="stroke:#A80036;stroke-width:1.5;"/><text fill="#000000" font-family="sans-serif" font-size="11" lengthAdjust="spacing" textLength="21" x="870" y="1959.3003">yes</text><text fill="#000000" font-family="sans-serif" font-size="11" lengthAdjust="spacing" textLength="335" x="698.5" y="1940.8979">Was reach before entry price and pending order is active?</text><text fill="#000000" font-family="sans-serif" font-size="11" lengthAdjust="spacing" textLength="14" x="1045.5" y="1934.4956">no</text><ellipse cx="866" cy="2110.9766" fill="#FFFFFF" filter="url(#f1xc8pef417ho6)" rx="11" ry="11" style="stroke:#000000;stroke-width:1.0;"/><ellipse cx="866" cy="2110.9766" fill="#000000" rx="6" ry="6" style="stroke:#7F7F7F;stroke-width:1.0;"/><line style="stroke:#A80036;stroke-width:1.5;" x1="866" x2="866" y1="67.2969" y2="87.2969"/><polygon fill="#A80036" points="862,77.2969,866,87.2969,870,77.2969,866,81.2969" style="stroke:#A80036;stroke-width:1.0;"/><line style="stroke:#A80036;stroke-width:1.5;" x1="987.75" x2="987.75" y1="209.2344" y2="229.2344"/><polygon fill="#A80036" points="983.75,219.2344,987.75,229.2344,991.75,219.2344,987.75,223.2344" style="stroke:#A80036;stroke-width:1.0;"/><line style="stroke:#A80036;stroke-width:1.5;" x1="821" x2="744.25" y1="153.2656" y2="153.2656"/><line style="stroke:#A80036;stroke-width:1.5;" x1="744.25" x2="744.25" y1="153.2656" y2="175.2656"/><polygon fill="#A80036" points="740.25,165.2656,744.25,175.2656,748.25,165.2656,744.25,169.2656" style="stroke:#A80036;stroke-width:1.0;"/><line style="stroke:#A80036;stroke-width:1.5;" x1="911" x2="987.75" y1="153.2656" y2="153.2656"/><line style="stroke:#A80036;stroke-width:1.5;" x1="987.75" x2="987.75" y1="153.2656" y2="175.2656"/><polygon fill="#A80036" points="983.75,165.2656,987.75,175.2656,991.75,165.2656,987.75,169.2656" style="stroke:#A80036;stroke-width:1.0;"/><line style="stroke:#A80036;stroke-width:1.5;" x1="744.25" x2="744.25" y1="209.2344" y2="256.2344"/><line style="stroke:#A80036;stroke-width:1.5;" x1="744.25" x2="866" y1="256.2344" y2="256.2344"/><line style="stroke:#A80036;stroke-width:1.5;" x1="866" x2="866" y1="256.2344" y2="271.2344"/><polygon fill="#A80036" points="862,261.2344,866,271.2344,870,261.2344,866,265.2344" style="stroke:#A80036;stroke-width:1.0;"/><line style="stroke:#A80036;stroke-width:1.5;" x1="866" x2="866" y1="121.2656" y2="141.2656"/><polygon fill="#A80036" points="862,131.2656,866,141.2656,870,131.2656,866,135.2656" style="stroke:#A80036;stroke-width:1.0;"/><line style="stroke:#A80036;stroke-width:1.5;" x1="866" x2="866" y1="305.2031" y2="325.2031"/><polygon fill="#A80036" points="862,315.2031,866,325.2031,870,315.2031,866,319.2031" style="stroke:#A80036;stroke-width:1.0;"/><line style="stroke:#A80036;stroke-width:1.5;" x1="987.75" x2="987.75" y1="447.1406" y2="467.1406"/><polygon fill="#A80036" points="983.75,457.1406,987.75,467.1406,991.75,457.1406,987.75,461.1406" style="stroke:#A80036;stroke-width:1.0;"/><line style="stroke:#A80036;stroke-width:1.5;" x1="821" x2="744.25" y1="391.1719" y2="391.1719"/><line style="stroke:#A80036;stroke-width:1.5;" x1="744.25" x2="744.25" y1="391.1719" y2="413.1719"/><polygon fill="#A80036" points="740.25,403.1719,744.25,413.1719,748.25,403.1719,744.25,407.1719" style="stroke:#A80036;stroke-width:1.0;"/><line style="stroke:#A80036;stroke-width:1.5;" x1="911" x2="987.75" y1="391.1719" y2="391.1719"/><line style="stroke:#A80036;stroke-width:1.5;" x1="987.75" x2="987.75" y1="391.1719" y2="413.1719"/><polygon fill="#A80036" points="983.75,403.1719,987.75,413.1719,991.75,403.1719,987.75,407.1719" style="stroke:#A80036;stroke-width:1.0;"/><line style="stroke:#A80036;stroke-width:1.5;" x1="744.25" x2="744.25" y1="447.1406" y2="494.1406"/><line style="stroke:#A80036;stroke-width:1.5;" x1="744.25" x2="866" y1="494.1406" y2="494.1406"/><line style="stroke:#A80036;stroke-width:1.5;" x1="866" x2="866" y1="494.1406" y2="524.2734"/><polygon fill="#A80036" points="862,514.2734,866,524.2734,870,514.2734,866,518.2734" style="stroke:#A80036;stroke-width:1.0;"/><line style="stroke:#A80036;stroke-width:1.5;" x1="866" x2="866" y1="359.1719" y2="379.1719"/><polygon fill="#A80036" points="862,369.1719,866,379.1719,870,369.1719,866,373.1719" style="stroke:#A80036;stroke-width:1.0;"/><line style="stroke:#A80036;stroke-width:1.5;" x1="751.75" x2="751.75" y1="592.2422" y2="612.2422"/><polygon fill="#A80036" points="747.75,602.2422,751.75,612.2422,755.75,602.2422,751.75,606.2422" style="stroke:#A80036;stroke-width:1.0;"/><line style="stroke:#A80036;stroke-width:1.5;" x1="798" x2="751.75" y1="536.2734" y2="536.2734"/><line style="stroke:#A80036;stroke-width:1.5;" x1="751.75" x2="751.75" y1="536.2734" y2="558.2734"/><polygon fill="#A80036" points="747.75,548.2734,751.75,558.2734,755.75,548.2734,751.75,552.2734" style="stroke:#A80036;stroke-width:1.0;"/><line style="stroke:#A80036;stroke-width:1.5;" x1="934" x2="980.25" y1="536.2734" y2="536.2734"/><line style="stroke:#A80036;stroke-width:1.5;" x1="980.25" x2="980.25" y1="536.2734" y2="558.2734"/><polygon fill="#A80036" points="976.25,548.2734,980.25,558.2734,984.25,548.2734,980.25,552.2734" style="stroke:#A80036;stroke-width:1.0;"/><line style="stroke:#A80036;stroke-width:1.5;" x1="980.25" x2="980.25" y1="592.2422" y2="639.2422"/><line style="stroke:#A80036;stroke-width:1.5;" x1="980.25" x2="866" y1="639.2422" y2="639.2422"/><line style="stroke:#A80036;stroke-width:1.5;" x1="866" x2="866" y1="639.2422" y2="669.375"/><polygon fill="#A80036" points="862,659.375,866,669.375,870,659.375,866,663.375" style="stroke:#A80036;stroke-width:1.0;"/><line style="stroke:#A80036;stroke-width:1.5;" x1="866" x2="866" y1="751.7461" y2="771.7461"/><polygon fill="#A80036" points="862,761.7461,866,771.7461,870,761.7461,866,765.7461" style="stroke:#A80036;stroke-width:1.0;"/><line style="stroke:#A80036;stroke-width:1.5;" x1="866" x2="866" y1="805.7148" y2="825.7148"/><polygon fill="#A80036" points="862,815.7148,866,825.7148,870,815.7148,866,819.7148" style="stroke:#A80036;stroke-width:1.0;"/><line style="stroke:#A80036;stroke-width:1.5;" x1="866" x2="866" y1="693.375" y2="717.7773"/><polygon fill="#A80036" points="862,707.7773,866,717.7773,870,707.7773,866,711.7773" style="stroke:#A80036;stroke-width:1.0;"/><line style="stroke:#A80036;stroke-width:1.5;" x1="946.5" x2="1032.5" y1="681.375" y2="681.375"/><polygon fill="#A80036" points="1028.5,778.7305,1032.5,788.7305,1036.5,778.7305,1032.5,782.7305" style="stroke:#A80036;stroke-width:1.5;"/><line style="stroke:#A80036;stroke-width:1.5;" x1="1032.5" x2="1032.5" y1="681.375" y2="891.6836"/><line style="stroke:#A80036;stroke-width:1.5;" x1="1032.5" x2="878" y1="891.6836" y2="891.6836"/><polygon fill="#A80036" points="888,887.6836,878,891.6836,888,895.6836,884,891.6836" style="stroke:#A80036;stroke-width:1.0;"/><line style="stroke:#A80036;stroke-width:1.5;" x1="866" x2="866" y1="859.6836" y2="879.6836"/><polygon fill="#A80036" points="862,869.6836,866,879.6836,870,869.6836,866,873.6836" style="stroke:#A80036;stroke-width:1.0;"/><line style="stroke:#A80036;stroke-width:1.5;" x1="866" x2="866" y1="1021.1875" y2="1041.1875"/><polygon fill="#A80036" points="862,1031.1875,866,1041.1875,870,1031.1875,866,1035.1875" style="stroke:#A80036;stroke-width:1.0;"/><line style="stroke:#A80036;stroke-width:1.5;" x1="866" x2="866" y1="1075.1563" y2="1095.1563"/><polygon fill="#A80036" points="862,1085.1563,866,1095.1563,870,1085.1563,866,1089.1563" style="stroke:#A80036;stroke-width:1.0;"/><line style="stroke:#A80036;stroke-width:1.5;" x1="866" x2="866" y1="1231.4961" y2="1260.0117"/><polygon fill="#A80036" points="862,1250.0117,866,1260.0117,870,1250.0117,866,1254.0117" style="stroke:#A80036;stroke-width:1.0;"/><line style="stroke:#A80036;stroke-width:1.5;" x1="866" x2="866" y1="1173.125" y2="1197.5273"/><polygon fill="#A80036" points="862,1187.5273,866,1197.5273,870,1187.5273,866,1191.5273" style="stroke:#A80036;stroke-width:1.0;"/><line style="stroke:#A80036;stroke-width:1.5;" x1="1015.5" x2="1135" y1="1161.125" y2="1161.125"/><polygon fill="#A80036" points="1131,1230.0117,1135,1240.0117,1139,1230.0117,1135,1234.0117" style="stroke:#A80036;stroke-width:1.5;"/><line style="stroke:#A80036;stroke-width:1.5;" x1="1135" x2="1135" y1="1161.125" y2="1304.0117"/><line style="stroke:#A80036;stroke-width:1.5;" x1="1135" x2="866" y1="1304.0117" y2="1304.0117"/><line style="stroke:#A80036;stroke-width:1.5;" x1="866" x2="866" y1="1304.0117" y2="1339.1445"/><polygon fill="#A80036" points="862,1329.1445,866,1339.1445,870,1329.1445,866,1333.1445" style="stroke:#A80036;stroke-width:1.0;"/><line style="stroke:#A80036;stroke-width:1.5;" x1="866" x2="866" y1="1129.125" y2="1149.125"/><polygon fill="#A80036" points="862,1139.125,866,1149.125,870,1139.125,866,1143.125" style="stroke:#A80036;stroke-width:1.0;"/><line style="stroke:#A80036;stroke-width:1.5;" x1="866" x2="866" y1="1421.5156" y2="1450.0313"/><polygon fill="#A80036" points="862,1440.0313,866,1450.0313,870,1440.0313,866,1444.0313" style="stroke:#A80036;stroke-width:1.0;"/><line style="stroke:#A80036;stroke-width:1.5;" x1="866" x2="866" y1="1363.1445" y2="1387.5469"/><polygon fill="#A80036" points="862,1377.5469,866,1387.5469,870,1377.5469,866,1381.5469" style="stroke:#A80036;stroke-width:1.0;"/><line style="stroke:#A80036;stroke-width:1.5;" x1="953" x2="1095" y1="1351.1445" y2="1351.1445"/><polygon fill="#A80036" points="1091,1420.0313,1095,1430.0313,1099,1420.0313,1095,1424.0313" style="stroke:#A80036;stroke-width:1.5;"/><line style="stroke:#A80036;stroke-width:1.5;" x1="1095" x2="1095" y1="1351.1445" y2="1494.0313"/><line style="stroke:#A80036;stroke-width:1.5;" x1="1095" x2="866" y1="1494.0313" y2="1494.0313"/><line style="stroke:#A80036;stroke-width:1.5;" x1="866" x2="866" y1="1494.0313" y2="1514.0313"/><polygon fill="#A80036" points="862,1504.0313,866,1514.0313,870,1504.0313,866,1508.0313" style="stroke:#A80036;stroke-width:1.0;"/><line style="stroke:#A80036;stroke-width:1.5;" x1="866" x2="866" y1="962.8164" y2="987.2188"/><polygon fill="#A80036" points="862,977.2188,866,987.2188,870,977.2188,866,981.2188" style="stroke:#A80036;stroke-width:1.0;"/><line style="stroke:#A80036;stroke-width:1.5;" x1="965" x2="1153" y1="950.8164" y2="950.8164"/><polygon fill="#A80036" points="1149,1263.5117,1153,1273.5117,1157,1263.5117,1153,1267.5117" style="stroke:#A80036;stroke-width:1.5;"/><line style="stroke:#A80036;stroke-width:1.5;" x1="1153" x2="1153" y1="950.8164" y2="1580"/><line style="stroke:#A80036;stroke-width:1.5;" x1="1153" x2="878" y1="1580" y2="1580"/><polygon fill="#A80036" points="888,1576,878,1580,888,1584,884,1580" style="stroke:#A80036;stroke-width:1.0;"/><line style="stroke:#A80036;stroke-width:1.5;" x1="866" x2="866" y1="1548" y2="1568"/><polygon fill="#A80036" points="862,1558,866,1568,870,1558,866,1562" style="stroke:#A80036;stroke-width:1.0;"/><line style="stroke:#A80036;stroke-width:1.5;" x1="866" x2="866" y1="903.6836" y2="938.8164"/><polygon fill="#A80036" points="862,928.8164,866,938.8164,870,928.8164,866,932.8164" style="stroke:#A80036;stroke-width:1.0;"/><line style="stroke:#A80036;stroke-width:1.5;" x1="866" x2="866" y1="1709.5039" y2="1729.5039"/><polygon fill="#A80036" points="862,1719.5039,866,1729.5039,870,1719.5039,866,1723.5039" style="stroke:#A80036;stroke-width:1.0;"/><line style="stroke:#A80036;stroke-width:1.5;" x1="866" x2="866" y1="1763.4727" y2="1791.9883"/><polygon fill="#A80036" points="862,1781.9883,866,1791.9883,870,1781.9883,866,1785.9883" style="stroke:#A80036;stroke-width:1.0;"/><line style="stroke:#A80036;stroke-width:1.5;" x1="866" x2="866" y1="1825.957" y2="1845.957"/><polygon fill="#A80036" points="862,1835.957,866,1845.957,870,1835.957,866,1839.957" style="stroke:#A80036;stroke-width:1.0;"/><line style="stroke:#A80036;stroke-width:1.5;" x1="866" x2="866" y1="1651.1328" y2="1675.5352"/><polygon fill="#A80036" points="862,1665.5352,866,1675.5352,870,1665.5352,866,1669.5352" style="stroke:#A80036;stroke-width:1.0;"/><line style="stroke:#A80036;stroke-width:1.5;" x1="1037" x2="1055.5" y1="1639.1328" y2="1639.1328"/><polygon fill="#A80036" points="1051.5,1761.9883,1055.5,1771.9883,1059.5,1761.9883,1055.5,1765.9883" style="stroke:#A80036;stroke-width:1.5;"/><line style="stroke:#A80036;stroke-width:1.5;" x1="1055.5" x2="1055.5" y1="1639.1328" y2="1889.957"/><line style="stroke:#A80036;stroke-width:1.5;" x1="1055.5" x2="866" y1="1889.957" y2="1889.957"/><line style="stroke:#A80036;stroke-width:1.5;" x1="866" x2="866" y1="1889.957" y2="1925.0898"/><polygon fill="#A80036" points="862,1915.0898,866,1925.0898,870,1915.0898,866,1919.0898" style="stroke:#A80036;stroke-width:1.0;"/><line style="stroke:#A80036;stroke-width:1.5;" x1="866" x2="866" y1="1592" y2="1627.1328"/><polygon fill="#A80036" points="862,1617.1328,866,1627.1328,870,1617.1328,866,1621.1328" style="stroke:#A80036;stroke-width:1.0;"/><line style="stroke:#A80036;stroke-width:1.5;" x1="866" x2="866" y1="2007.4609" y2="2035.9766"/><polygon fill="#A80036" points="862,2025.9766,866,2035.9766,870,2025.9766,866,2029.9766" style="stroke:#A80036;stroke-width:1.0;"/><line style="stroke:#A80036;stroke-width:1.5;" x1="866" x2="866" y1="1949.0898" y2="1973.4922"/><polygon fill="#A80036" points="862,1963.4922,866,1973.4922,870,1963.4922,866,1967.4922" style="stroke:#A80036;stroke-width:1.0;"/><line style="stroke:#A80036;stroke-width:1.5;" x1="1045.5" x2="1057.5" y1="1937.0898" y2="1937.0898"/><polygon fill="#A80036" points="1053.5,2005.9766,1057.5,2015.9766,1061.5,2005.9766,1057.5,2009.9766" style="stroke:#A80036;stroke-width:1.5;"/><line style="stroke:#A80036;stroke-width:1.5;" x1="1057.5" x2="1057.5" y1="1937.0898" y2="2079.9766"/><line style="stroke:#A80036;stroke-width:1.5;" x1="1057.5" x2="866" y1="2079.9766" y2="2079.9766"/><line style="stroke:#A80036;stroke-width:1.5;" x1="866" x2="866" y1="2079.9766" y2="2099.9766"/><polygon fill="#A80036" points="862,2089.9766,866,2099.9766,870,2089.9766,866,2093.9766" style="stroke:#A80036;stroke-width:1.0;"/><!--SRC=[pLRBRjim4BphAzOv13BW6ZqxTGh7oI50qmIDqPuPQMKJfKY1NB_-lakAHHX5IjoYXnv53PSpixEKt4-fmHg7MKQI5CBIw5AID5ee-02BWkHEqX6kfLXRKKEMEHAMijbteMGf247gPalk8fCLv6YjiGxcS_Wu1jgWXlo8Rfm1p1wir0HdSHlN1xSj2dIksYfrTf6XSWYvDWFWS0eqWZaWeONs9Du7uCWq6JBhAijcIrCp486iA14QQngq997vQSFB2YkQmM_GWpMLf9MmQwG9F65bBDveiaS-ly09B6gprPGbOejsPzbJ_x_G7rZy40wCBJtgq4YBvUS1CYjP8vWgYebWDi8GxALIeV8qEQE7udquHphOUQwCZKmIjszytQ3YsbiuceDcoN1-3lxPSvX-DNkux00JCHP5iV5cSxU0Ghk698NEnGrfUyDwgsNsYCHqhHHFdFTl7feYWGmRiiKJe9uxZqFT-3si8UtYAnj6hqzY2rZUg_LS2KTNmewx3hG91VGHPJjOqIasT7CzwC9L1_YE4rtu2pUqTmF0yr_w8RflKAzyp5m-Xiivt8d3GYcpn_BvJKTB4ZBDuImsGg_HHurdJaCj3Y3Q2cr-tII6llIdywmemHBCyzPMTymoG9hcjbajtJ0K9IfnvCOvrt9IifOqoE_EE8AAcmQrsM7D_V4MADoX-WUaaWozxVlqSVl4LXIK3oTrF5qP4kfEQhx677o21yye-7_jDT_g-2g4AR3zuhL76GdpDyFUc_LHVygIAUY-UsyINbm982f_C_xTaFHLsl32mF342akX2rJGUFrw7JrYfdYGZYAqnGGJmsNPSvtss_UMKQcr2q_sJvrBx06Xowu41y9_-OUjUm7VYuZdQxltUt6wmD6jYxM3MU7_0_En_-qmpIy0]--></g></svg>